<mxfile host="Electron" modified="2023-12-03T11:28:52.982Z" agent="Mozilla/5.0 (Macintosh; Intel Mac OS X 10_15_7) AppleWebKit/537.36 (KHTML, like Gecko) draw.io/21.2.8 Chrome/112.0.5615.165 Electron/24.2.0 Safari/537.36" etag="BJ8MutNi1k2sFBti7FJd" version="21.2.8" type="device">
  <diagram name="페이지-1" id="rKyS5bkUUjPHAylTvcfs">
    <mxGraphModel dx="2226" dy="743" grid="1" gridSize="10" guides="1" tooltips="1" connect="1" arrows="1" fold="1" page="1" pageScale="1" pageWidth="1200" pageHeight="1600" math="0" shadow="0">
      <root>
        <mxCell id="0" />
        <mxCell id="1" parent="0" />
        <mxCell id="eMT0vumo1_mFRorj7Jos-42" value="" style="rounded=1;whiteSpace=wrap;html=1;fillColor=none;strokeWidth=2;dashed=1;" parent="1" vertex="1">
          <mxGeometry x="-759.49" y="110" width="699.49" height="397" as="geometry" />
        </mxCell>
        <mxCell id="eMT0vumo1_mFRorj7Jos-47" style="edgeStyle=orthogonalEdgeStyle;rounded=0;orthogonalLoop=1;jettySize=auto;html=1;" parent="1" source="eMT0vumo1_mFRorj7Jos-40" target="eMT0vumo1_mFRorj7Jos-44" edge="1">
          <mxGeometry relative="1" as="geometry" />
        </mxCell>
        <mxCell id="eMT0vumo1_mFRorj7Jos-40" value="" style="rounded=1;whiteSpace=wrap;html=1;fillColor=none;strokeWidth=2;dashed=1;" parent="1" vertex="1">
          <mxGeometry x="-529.48" y="200" width="234.99" height="260" as="geometry" />
        </mxCell>
        <mxCell id="eMT0vumo1_mFRorj7Jos-3" value="Application Build" style="shape=image;verticalLabelPosition=bottom;labelBackgroundColor=default;verticalAlign=top;aspect=fixed;imageAspect=0;image=data:image/png,iVBORw0KGgoAAAANSUhEUgAAAGAAAABgCAYAAADimHc4AAAACXBIWXMAAAsTAAALEwEAmpwYAAAKZklEQVR4nO2daXAUxxWAJ3ecVI7K4VSSyvEvyW//TuxUwGz3iiMGOc7p3L4SBxPHSZxUVEmVA5pegcQRwMRgDDZIGGODy4ABC3XvroTEIXSCkNAthO773u3Ua7Rid7TS7s707Mwo81W9KpU0O+p5b7r79XuvexXFxcXFxcXFxcXFxcUpbClc/WkSWH6vspQhgeX3+oq8KwjFT6sM7VAZPqsyXKEy1EAY6iMUTRKGp2d/biYUX1MZOiWupWgDYQiBosxom0rx3wjFTypLiayLGR9Ti/BqlaE8oWiKw4RhbkgoCqkUVaoU78z2e3BWVeaHjbaTnF7+cZWhbsLwecXpZPGs9xPmfYAwtI9QNGRY4QlEZaifULzfRz3f41x5n542E4qfiRh3c9GKLypOJKvw/o9CF1YZumm20hfuHbhKZfgx6HnJtjvvHc9HCEXtcwal+PeK44YZhp9VGe6wTPHaXkFRJ7wMuy/e96FE7QeDxX4WM8UpiPGdoiarFU4WFFTno2jNQu3PKrz/g/N6LEWhnKD3y4qd2Vi44uuE4RPWKxgna4iCeC4mofin8a73MfQHxa4Q6llHGB6wXqk4NaGoRy1Ca2OdBVQT71qVoYBiN+5MVni75Ypk+kW4wRQRGHoI9T6y2HW+oge/otiFf19Y81mV4mKrFUhkGYLhc4Ti+sWvQU8pdiDbv+pLsIiyWmnEZHmvYbfWAKes1r3iC2R8U2W4xWrlEJPl9ap/8JnwNM8LrovuJRPZ/lWfsEz54IrZ28XEUsTnz+Ddo00cOF67Mfbv1LPOsjF/IQ9hqUmw5TUeoabrPY0B8H5LvJ2lNOGSRSS/8nkeDofmDDAxPcJz/KuiDIB6CgoyP5BWAzjd1SRJyu7SR/nY1CDXcrjizzHXZfu93073IosvddlR8iPeM9rM4wFDUvS1KkNqOsMLA0tf+T+cm3Tj0T5UqzEArk6LAVSKj1utHGKy7Cp9dFHlA6HwDN9anHnXABSHc4tXfsFU5UPE0GrlEJPlYPkGPjLZx5Phjep/anqBN9PceP4S9/dP1m3hM6EpniyX2t/SGADtMM0AkEyxWkHExMm2rifIU+X2SEOsASiqNEX52nTc0hEvf/uaGtfNTIZQeJpvCay5ez+KQnklnk9KNwCk7axXFpYqr5Zv4K2DVdwoMGdojPqAVOVDQsLSBDqTK7CAaugr5bI4W78z5v4qRc9JNUC2H3/XaqURg7Kt+GH+7o3tCV1LPVTdPhv7/yg+LNUAKsN7rVYg0RG53HfpCX6uYRdv7i8XPrtZgFFNm4hzgpn32G3VmxdcJ+IzL19+ih+qeE744uA+Bppf5ZWdZ8QKdSo0wdMFBOk2B1ZH9QA0CalMaeUk6Vbw9pJHROKDNb0iFNo8cJX3jbXx0amBmIiknfjvxd/EPMOm8/hbcgzAUF46lL730mPc33yAd480cidypPLvmmfyrJRkAHNzvPmVf+VN/Ze53RmfHlr076dvbNU8G/qdYeVDgZKUKuU4su/yk7x9sIY7gZ7RloQGKGktiH1GiohhA4j6fMmKhyySv+mASGw7hau3Tia8prarKOY5VYryjfcAip+W7b009V/hTmJ8eogHmg8mvC5ObuCcYQNAZE+W8nde+AnvGrnJnYa/+QBvGahIeB14aRoDXDbeAxg6I+fNX+tI5Q9P9vKXLv42Kdd3ZLJXOwQ1Ge8BFFXKWJHKjLukk5N1mzlt2p/UtVMz45oegLplGMBw8uV840vcibQMVAiHYXCiK6nrIYkT++yoT4IBcK8R5e8p+1VaQwKymJwZ43vKfs1P1G5K+jPTocnY56doyLABZreC6jZAXU+AO5HjtRtjyhB1GmDSUgOIyYuHudO42H5MtB9Wtqm6qxovaMLSIaj81jvcabQNVotxH7y2ZKsiIvSPt9tnEs7xr9SdY7WKgfFOsVaB9he3HEr58x1D17UGuGmZGwoBNicxNNHNXyz7xdzQCeN5qtzoKdbq4aplCzFIjDiF0akBvvfS47M9d5V4k/VQ2vq6ZhLGpy0LRcDb4ATGpodEVi3S7gutR3TfK044eqtlwbjesVZud/rH22OyWFApYcRr05amSNm4pzccDW+WnWkbrBJpz0h7d5X+jA9P9ui+Hyw2N0dv1rhTI7rMsAFeoJ7P60nI2Nn/r+kqjEmgQ3Wz0TQo5Kxjx38Ugq1bilUpST1ehNnAW3qmfocoRYy0E97aZgn5iaLGvfJD0XMGoDg3VQOAZ2EnOofrRdI/tp1eXn37nIS7h/nu0p/HGoBinzQD+PzeVaka4NZwHbcDofCM8Gy04zMsFKGaTQaQ156ngyLstbQwC2p5rKa5/4pI/GvbBsa43s2k/R+orNa8/YOgM8XK0sRTN/K4VfSOtfKj1Vlx25UbfEhqCUz/eIeImmrG/z2KbFItzoXNDun2hDqH6/nb10js3t0oebHsl+IamZyqy403/HxHugFmy9MbUjFCOtKQ4XCI1/eW8PyKvyzalmM1/xIbq2XSMVTLfVEelRCK6/UeBih9g8ZrV5/lZhDmYTHxnWvYyf9z4ceLtgF6Q2nbUfEpmcCumHjzC5wpp5iFni1KtV3npTzw1My4iC/B3JJI6RE5dPVPpuwFACDPHUf5HXAapGImhKE/pmIAWGVCnF3PG9Y2WC2iqqBIrRuZaP6542KaMwfN24wxZwDPesVsYJsqYbgxFSPAIiWREULhaX5r+Dova3uDH63K4rnBtUnfPyLbin8gKthkj/XRXOumYg0xX/moQbrruRBwJrOeLf/RwxFky+p7SzhtfFlssMgNfD9lhUcEdsFc7jghKhnMpKzt6DyXMyLZFGUo6UTvUQUHy9eLjJNeZZOochfauE+6WxmP0al+/lbtCwu2RWX4mJJuSAB/TZzDbFCRJMU3HXpM5/ANng6geht2wUeHrecL6tvEMr6adgMIIzDPSrP2DpDZkEFB5fNCCXomciP1oFDrDzmCxdo3++wPWaL8u0ZAW5NRJvjjJa354uEgUgq+eU6cyQyUDmEE8DTMnEy1izlwV0HpB8ufmb+4Wkgo2qJYjTiyjKFAosbGK/Moac03XelQrzk+PSzGcTh0Ceo94aw38LYgh3vgynq9DoBfxncRSGHTmWWfghKMxRo8OHE7YTk3cYjAoUw5wQc/o9iJRMdWLhUDqBS1WTbpGjm4Nfq4xwgXWo847c1vyfav+IZiZ+Do4njDEUzCxS2HReUBFLFean8zpfCC9YJqbHVA92LA+EgoClqvNCxL/LYb8xMBXweiMrTJzHUCSYOoDO22jbej/5wJ1Oc4xVM8SBh+WFkKiLCFo465RG/a1tMxHLqw8albKqRcZZaT2BGRT4AvQrPR4X8qRW2QTElbPN8O3Dl13fNEqol+6W+8Hz0ObVH+n/Ex733iTCKKetKg+AGVoVegctm06gWnkhPMvAcySypDm1WKyqHC2LDC4R4UXSEM58D4bnrSfCnhK8z4nI+h5bDRQaV4m0rxu2AYGDrE7k3YQkvRJPx853dgNHxaXAufYd5lcA+rn8PFxcXFxcXFxcXFxUWJ4n99JEWqxma+gwAAAABJRU5ErkJggg==;" parent="1" vertex="1">
          <mxGeometry x="-454.49" y="224" width="86" height="86" as="geometry" />
        </mxCell>
        <mxCell id="eMT0vumo1_mFRorj7Jos-37" style="edgeStyle=orthogonalEdgeStyle;rounded=0;orthogonalLoop=1;jettySize=auto;html=1;" parent="1" source="eMT0vumo1_mFRorj7Jos-35" target="eMT0vumo1_mFRorj7Jos-36" edge="1">
          <mxGeometry relative="1" as="geometry" />
        </mxCell>
        <mxCell id="eMT0vumo1_mFRorj7Jos-35" value="Developers" style="sketch=0;outlineConnect=0;gradientColor=none;fontColor=#000000;strokeColor=none;fillColor=#000000;dashed=0;verticalLabelPosition=bottom;verticalAlign=top;align=center;html=1;fontSize=12;fontStyle=0;aspect=fixed;shape=mxgraph.aws4.illustration_users;pointerEvents=1" parent="1" vertex="1">
          <mxGeometry x="-1170" y="280" width="100" height="100" as="geometry" />
        </mxCell>
        <mxCell id="eMT0vumo1_mFRorj7Jos-53" style="edgeStyle=orthogonalEdgeStyle;rounded=0;orthogonalLoop=1;jettySize=auto;html=1;exitX=1;exitY=0.5;exitDx=0;exitDy=0;" parent="1" source="eMT0vumo1_mFRorj7Jos-36" target="eMT0vumo1_mFRorj7Jos-43" edge="1">
          <mxGeometry relative="1" as="geometry" />
        </mxCell>
        <mxCell id="eMT0vumo1_mFRorj7Jos-36" value="Github" style="shape=image;verticalLabelPosition=bottom;labelBackgroundColor=default;verticalAlign=top;aspect=fixed;imageAspect=0;image=data:image/png,iVBORw0KGgoAAAANSUhEUgAAAPAAAADwCAYAAAA+VemSAAAACXBIWXMAADddAAA3XQEZgEZdAAAAAXNSR0IArs4c6QAAAARnQU1BAACxjwv8YQUAABiOSURBVHgB7Z2/cxtHlsffG0BnytqqxdpeexWZqiXvSO+WCGWXCcw2s5ztRaKyyyRll4nMLpP0F4jKLhMZXiQou8xDl21qTboMZ7pbn01XnS3aBKavXxOwYRk/Zgbzo9/M91NFE6IJkQL62+9Hv36PCAAAAAAAAAAAAAAAAAAAAIBfwQRUsrbWXh40qGWYWmxoefR1M/Z4EszUk89RRCfcsB+GThoDOnn+POwRUAcE7CHLy+3WhUtOiG1DIlCzYYXZYvmzFSzZx5QHTCf27+7ZRyd2KwiJg2/tzw2DgHpHn4QhAe+AgEtGxNq4SB0OrGAjc53PRbtMfiIi7lkzfiDCvmA/YLnLBQIumNU/tUWgHbGq1tp1PBZrLOwC6hkRdsDP7OMuLHWxQMA5I7Fqv0E3xLraV7uTm/vrC+dueJcD3rexdRcWOl8g4BxY+XO7Q4PofSa+od3CLsq5hTZ71Aj2jz8OuwQyBQLOiJFobXy4VXkrmxJ28TN1TcCPIeZsgIAXwIk2iq7bl/EORJuMkZgbEe/AzU4PBJwQyRo3L9GWjWnft3/sEMiC0MbMD8++o71eLzwhEBsIOCYuexxFN+Ei54hNgNkFuQerHB8IeA7nsa25R7C2RdOlBu8gVp4NBDwFCNcPXKwc8I49X94l8Csg4FewrrLEt/fqfvzjGxDyZCDgIWJxeWAeQbh+AyH/ktoLGK6yTlyBSINv1T1Grq2AXYkjm0cE4aqGmXbrnLWunYDdOe7r0W0yvE2gOrDZ7n8fPKzbOXKDasQf19s3mhfME/tu3yBQMbjTuEB/ffOdy99+/fcXtbkRVQsLDHe5XtTJra68BV5dv3o7Cug/7MM1AnWhHTFtvfH7yz98/dWL/6IKU1kLDKsLhnSbhm9V1RpX0gL/49rVm4OA9ghWF9i8pWG6UdXYuFIW2GWYL0b33PU+AF4lMA/63wU7VcpUV0bAcluIIvMElVRgFlIA0jC8WRWXuhIutCSqrHB37cM/EACzaVUpwaVewCvrV+/bfXXbPlwiAOIha+Uvb7zzTuvrv//3f5Ji1LrQwyzzE/uwTQCkJ7RZ6g+0utQqBezGirB5ingXZIHmuDggZcjtoX5gPoR4QVbIWrLe3IdSakvKUBUDS7LKvtpSVYV4F2TNkrXEf7XJrW81JbfUCHhl7eo9Yv53AiBf/vLG2++QTW49IwWoEPBQvNsEQCFwR4uIvRewOyZi/jcCoFB0iNhrAa++t/HIvpD/SgCUAnfefPsPy1bE++Qp3gpYxGsMbREA5dL2WcReCnhYXQXLC3zBWxF7J+BhwgoxL/CNto8xsVcCRrYZ+I1/iS1vBAzxAh34JWIvBCwdNAzzAwJABdx5663Lvf/96sUBlUzplxnOx3aaDwkAXZxwwJtHn4Sltukp9TKD3CqSLhoEgD5asnbdGi6R0iyw9K+6cBG3ioBu5Cri2Uu+VlafrdIscPN1TAIE+pE13Lzo2heXQilJLJdxRqEGqA5rZWWmC3ehh+M8nxIAVaPBm0WPOy1UwGiFAyrOSdPwtSJb8zSpQIajTpapTNim/w3/lHAwbFo2kGkR0MfwvTT2s30PT1imMJBZpvJoDdf4JhVEYRbYj0or7h4fhr96cd1EhyVq21dDPq6zMW14CZ7hRMqhFeozK9jwgqFwkqVbWbMhGpcdovFdu84KKUwqRMDDFrBfUMnY3frW0fNwN873SoFJFNFWQOZ9iLkkxMIS75mIHvdPKYx7VLOyviEC7lCZFBQP5y5gn857+y/5d2nO687HttAd626/D3e7CLjLAT0++4720rxfK+vtOzY4uk8lUtT5cO4CHt7t9WDYGO9bt2ahtqFuM1qiG9aU34NVzhhrbY3hx2xo7/j5YpZruW1Doh/MN1Q2gXlw/MlHdylHchWwT0dGSdznOKyutbcg5AyQ2Dbih9ZFfpCltfLCjRZydqVzrcTiQXkVKq/SIOpShshmcHR4cEU2BnGXCCTjPCm10/+er1iLu525q2nYi+t+ogHx3CgnchOwZJ29sU48OWOZBRBycph5txnxtVyE+zNd8gBXavk65RZC5uJC+5J1HmGIH35+GBYSh9tjjG0b+9xGsmsS3LWvy86iMW4cXBz8o12DnrwPTcNX8jAiuRRy9AObATTkE10qCLEqdgPbHTBtGzI3KSPscUpPzj/tjntiX9ovXeFCYB8PqMcNOmkMyFmy01M6mWXVxJ1bWqLWoEEt+1y3uO3zl41xHy1metctejbtzBa/HAdFfDfLHMQ8emF4svLeRo88mV6ZV4FH5hbYHrlsmcif2FfggK+VcfFahmXZc+T7sUMJiQutUO2bEloxHdjn9aYVLBSBy7pfomV7Hr7M7ISwIV8mY2KLQryfwUvaLuO6nX39HzBZb8gT7GvxgfUE9yhDshfw+sYXvmVmjw8PSu084txqm7F+9etiVe1/uvZDEi5h2d0d4vJT5Vpgs7yGrk+y1pIPsMdCt4pwl6fhw3nwOHmcDWfqQnuVuBph3U4qmZFb3Q/oibWsz4KAwrRFCj4w/L27NBaanLdGcsc2Url20C/J6o4jHkzpPaPGGEtobVNGZPbv8/em0eT6Z1B9fEumDjnpv+QrWW1umR0jDQI/ixps7NYjUEtOl8hHD6eV5bFSJgKWnc7XOUYuYwtqiWSiyUeMuZ1VM7xMBCzWlwDwEE+La1pZaWZhAftsfQHwFdFMFlZ4YQHD+gKQjjNePBZeSMCwvgCkh8ncXPSiw0IChvUFYCEWzkinFrDz340H9y3nYHCpoNZ4f1/bZqQXscKpBTxoUEfDZfaA6bcEaoncSCL/WcgKp3ehIx3us6H4hfegWlz4Tke3FDbpb62lErDcstHSSobhQteWqKljjYqWXPupFKQSMGd4zzVv5MXJs6UJ8JfhFUgdDNJ5tIkFPDx8vkGKaP5G0RsJssOYDdJDJ42hSSzgPusSryPyP1sOcoB1ve9pklmJBexTh4PYGHOdQK1YXW1n1xKoINIksxIJWObOKO2D3EEcXC9MU5/XlSaZlUjAHOhJXr3KhUsKXX+QHta5Vs0g2TpN5kIrqLyaivRuArXAFXAYnYnLpCc8sQWs2H12d0IbEe0QqAVykV8a7ZNOWknc6NgC1uo+O/Ea3iyrNSsoB9eD2rDKTTuJGx3fhVbqPkcDvgvx1hPpBkqejFhJQhI3OpaAJSWv0n1m3vn8s2wbaQNd9F/jDxTOrIrtRscSsLmgL4Mrb9rxp24HBjVG4mGjMR6OWXwUz4VWWAghcS8BQM6V7sqIF9JETM3NFfDwTmWHNGFdZ8S9YJzBa7StzJWOVXw0V8CNH3SJV96k/vf0gAAYQ1zpiPguKaJxcb724rjQHdKEPTrQOnMI5MtwMmCX9NCZ9w1zBcysJ/4V61vkDFqgEEVnw3G0N1PA6krSlB7cg+IYjjvtkgas9ubFwTMF3DzVI15YXxAbRRv9vGYUs13oQFH8C+sLYiJWWE1GerCIgBWd/zYUlsyB8jCGH5MOOrP+52wBq2kKxvs49wVJ6C/pOGpkmt3Xa6qAhwksFV0s2BDqnUEihrODu+Q587qqThWwpgTW2SkEDNLA+6SAWQUd011oPe5zF4UbIA1NJZ4bz7gJOFXAiq4PqthFgX9I3kRDNpqZpsbBUwU8L3j2hgaFBEBq+Bl5zqz5Xupd6OOPXWUNAOkI/E9kzZrvNV3AKjLQ3CUAFuFH/z24WZnoiQJ2Xe0VYP9hBwTAApxd0lGRtbRE8QVsGkrOf/X1OgKe4VrQKlhHZ1NC2okC5oaauao9AmBBNKyjIEhigY2S4d0NwvkvWBgm/pI8Z5ompwlYhQvd7MMCg8WJyH9DME2TwZQvqhDw6SksMFgcZv/XUcD024lfn/RFe3D8LikAJZQgE4wKC7w86euJB3wDUDU4UODJsYnvQrPSKYQAVBVOEgMDAHQwOQZmHUksAOqCoSQWWMkxEgBZoKTuoXoudJzZMQBUGdUCnlbgDUBdQBIL1B4tlYeTUC3gfhPHXWBxtFQeTkK1gM0ALjRYHC2Vh5NQLeBpV6wASITiY9PJAlZQ3C1oufYIvGeZ/GeiJieXUioo7haYSK3rAzxCQRKLkwhYC9YC/44AWAAt/d+mMa2UUokFVtK7GniLlv5vhrg36evTSil1xMBzBj8BMBc1I4QmM+U6of89gkZcuIREFkgPsw4vjnly+6iJAtbQI2gM1TsoKBctJxmRoW8nfX2yBVYSAwtRBAGDheiQAqZpcpqAe6QE6wJdJwBSsLLW7pASkrnQkSIX2lAbiSyQCkUJLJNEwBeMrpGdzd/AjQZp0OO9TSuumijg0yVd/ZbNgG4QAElhHfGvcPRJONGoThSwloFPIxAHg6S4+FfPPeCpBnVqKaWWaiwH4mCQELu+FXltPDWknSpgNqxq9m7zIm0RADEJyLxPSpg1BzuY8SRViSxS9IaAchH32SgaXjArnJ0l4B7porP6J903S0AxcGBukiYalNyFHrxGXVKGMchGgxgYPdlnof9/KQQsmWgtnTl+wpjbSGaBWVgvbUub+zxrCufsC/1GnRVuNV+nOwTANCJzjxRhaHYyeY6AdWWiBTbK4htQGNqsr4NnJ5PntdTpkjLkDZI3igB4FWXW1xHM1uBMAfeXtB0lnWMicx+xMBhHpfWl2QksYaaAh4ksjSJGLAx+iUbra7U3K4ElzO1KaQw/I43YjPTaWnuZQO1ZWbt6T6P1jaO9OG1lu6STVp/NIwK1xm3izNukk+68b5grYI0FHWN0VtbbcKVrzIDNU1LK4GUGAnZxsF4rbDH3UGJZT1bWr97X6Dqfw9158a8QbzKD1jj4nJZNYDxBVrperK5fvW1FoNn72o/zTXFHq3RJMbILNy+aJwRqgXhcRm/c6+AgnuaYYrLy3sY3ijoYTCYwD44/+egugcoiSSuJe/W6zuf1z0eHB1fifG/s4WY2pf2YtBPxnZX3ruo7DwSxqIJ4HczduN8aW8BsaI+qgOFtiLh6VEa8FhNQbGMZ24UWKuFGj4A7XRncKYNNVFZBvEncZyHRfOBKuNEjxJ1e3/gQ1Vq6+eN6+4Yx1bC8jgTus5BIwJVxo3+mLW4XRKwTKZFksqcLVfEKKZn7LCRyoYXV9Y0vKrPbjcNm+/jTj3YIeI9suMMy2Q5ViKTus5DIAguVcqPHkeTW+gassedIgUY/MB9SxcTrMJzYgCQWcH+JHlB16did/Qtkqf1j5c/tjmywhvhBlVzmcRopCqYSu9CCvJBUxR1wDNeLN+Cdo0/CXQKl4Y6HAnPPmKo37uf948MwcVfVxBbYkcLUa0PifBOZRxLzo0VP8YhwV9/beCQeUfXFS2J+U3m2qSywkO+ZMHdlnEQQ/NwNxETUElHZX3jD/qlDBTOyyI0BdZ8/D3sEckFcZRq47hkdqglpklcjmpSWiB/azG2msaL8QxqGN+cJxLlV8gbbn19URtz9HGuR+/aXtJZhNzK8//lhWLVjtVKQm2LN1yO5PXTDird+Vz8X8GhTW+Dltn3RfzRfZGqFmXeOPw23kzxldc26twUKeRxnlZm6JuDHxx+HXQKxcUdBDbphN0WZadWhmiJr6OwlX4tz93fK89OzstbeztgKd48PDzYpIbKZNH6gbXuof5vKQqZYGOpywHKPM5w2kLmuOCv7G2rTILKC5Y79EposkNgs3j36NLxFKVlIwM4K/2C+oSxZoKBCrLEJzH0fjhlkZ3UTHgN+Jt0FpT1o2l1WIy7MaVDHRNEGBDudpuEri+RUFhKwsLre3jWU8TSEBUTs+a0UscpWxCbkIDgwTD3NwharurRErTOmNgc2wWjMhs0Yt+2qWq7qWW2WLGp93d9BCzIsa/uCsiYwD/rfBTtpFrfSq2V7/Zd8S4OY5QIBSykjRLoQi1pfoUEL8tVXL07e/P1lSYFn6yIZ/ufGBfrr7y5f/vKb/3nxPMlT5Xd6+63L+9bCycG494tM3G37Zv7L8XH4ghTwzVcvnr/x5uWL9hfvEEiFWN/PDsOFy5IXtsBCblZ4CDPtNiLeSbpbud5Ixjz12lLY5Fcz4msaz5ZX3tuQm0CJq4dANtZXSFeJ9QruF8mxOksqcdJc+3OZ4IHnVWMm+cbkC/1/4FvuKA0kQqxvVu95JgIW3CWHHAeCSzybRsTHfwsfGOKH5CW8d3wYqr0cIj3DjeGFkjB1wxUrRZSZUclMwK4BfJSvUEYiTtrjefCanBH7ZymahtS39Dl+7gpYugRiYZgfZ+lxZSZgQaxw3kJJ0+PZR0uRpRtVOjW43JIFoo2klYbzyFTAIpSIuAir0ln509X7SZ7gLAX70xIoSzeqbGCFY5LDRpepgIVhgX+X8kaa0snNlQT4k3Th6t1oghWeA+8dPc/+bnnmAhaaBbmrPDCPksTDvrjSbJI1LtPA0MOpTaloUvLKd+Qi4LyPlUa4ePhSlOgyhVtoEZeaPGpU1N2sbL+0ReH8jgpzEbBQRELLkcKVlqOl8ly+CrrPP9Ml8AvySFyNk5uAC3VXB8mvNFpLvF2GiKXTCFUU5cPg8yHgDyhHchOwIO5qQUUUnTR9q0oScZcqimzaqMz6GVn7ed8Lz1XAQlFFFCYy99MM8R6KeLOohRcEVV/gqofBZ4asp8FL2qacyV3ABbrSrebrlGoiu3gKDSfivJMw3K16pw6540yAZD0VcTU0dwELhWV+jbmdxgoLklg6Ogy35JZIpkK2RytSdSVW/vgw3KSKwxBwrlnnX/0oKpBiGsLz3SwuCIw6X1qLcjNpG1u7AfQion0ZBtc/rVcrHXfZn5KVulYL7ha5UadvK5vmh1lX2s21yfV+rutyuLCAhzvorny4hmxLrlWMfLTsrvfuL34i0ZdDyxOefUe9Ogn2VYI+9Uyhq8ofztsiU6GFQoVaYGFlrS39nJ9SnjSsu4o2r6WQd3MHnzED/uDzz4rtFV5IDDyOi4fzProZZNtwHoC52Li3aPEKhQtYcEc3+d4M6iStzgIgNcx7eVZbzaIUAQu53wyCFQYFIGu4/32xce84pQlYzocb+RZQdFbW26nOhQGIw2iWV5lJy9IELLhMr9SK5nYNzdyHKw1yw67dsi+mlCpgQSqTOM8ij4F5krQRHgDzYHsk6kNVXekCFlyngvwy06003SwBmIrNOOfRXSMNXghYyPNmkFz8t2eTH6a5sQTAL0gxAjdPFh6tkiVff/Wi+8ZblzmnkR1LMkXgjXfeab395uW/yfgVApnz1lt/aEVM1UweeiZewRsLPEIsca53iCO+Iy41rDFIglxw8U28QuGllHFZXb+6a4Wc7djSV3BHWAHvNAZU5TY3hVLFUkoRr9xUIw/xVsBCESIeY48D3s9LzKMkWtU3iqoJ2GfxCl4LWFhZa2/bnH2hVVVimY0M42Y+MIZCbtBJs0+901M6mXRoPxp0PWhQK4poOQioZZ+3zGTeHR94bTcIOXrYpQpTJQH7Ll7B+4tfEhNbEVORIh4OBreiMzfcDjcg6tsHzYvuTvPEZ/TlU3S+I5rop7/nlQdADXJU5GHM+yreJbEmUVYHSVBTPMw2T0OFgAUn4pIbsoM6wHe1iFdQI2Bh2JB9EyM8QOZI7zLDt7TNa1YlYEEaAjQjvob+wyArZC0x86Yv5ZFJUCdgQY5iGueWuNItWkEhhLKWtLb7VSlgQUR8/OnBNSS3QFqk4q//kjc1n82rFfCIn5JbiItBIvju54fhHe0dRNULWJDkFuJiEAcX7wZ8TVuyahqVELAgbtDZa3ytoGFqqZDqLALlwbx39pKvVWm8TaVacEufLfvpzupaO5TKrWFFFSiQvo+vuYRXxhVnVMLqjlMZCzyOHAcUM6wM+A+7Y8equMyvUtkhGMPM4pa1xl1Y4xoysroVFe6ISlrgcWCN60i1re44tRhDBWtcE2pidcepvAUeR6zx0eHBFRR/VA9XlPE9X6mTeIVaCXiEFH9kPsgblATLsLzNKhRlpKGWAhbErZZuC9zna6ip1ocr2rHClWHabuJlTamtgEccHYWh1FTLVTJUcilgeO1PQqE6C3dE7QU8YhQfQ8ieMkxQSZyr8dpfXtQiC52E4eLYtRnrLcN006ZHOgRK47zBoCSoaLeOMe48IOApjIS8stbuMNOWIbNwe1uOqm/Z+0sUNn+gDJDkFMkMoi6BqXjfVtYXpF3qgGnbWuTrac+RJfNdhwbyK+sbT+2nDiXl3E0W4T5EfBsPCDgFqdxrRZ0OF0W8FmLzNP4zOLSi3e+f0gO4ycmAgBdArPIZ052AzPuzrLLEcHJOSTVi5Z/adygw96d+g7W2xvBjNrQHa5seCDgjxOpYqyyN4M87v7sFSl/WeYGONjj3mjC17E52YvMJPRPRY2ttQ1hbAAAAAAAAAAAAAAAAAAAAAAAA4Jf8P8WdqoAaqCHmAAAAAElFTkSuQmCC;" parent="1" vertex="1">
          <mxGeometry x="-940" y="280" width="100" height="100" as="geometry" />
        </mxCell>
        <mxCell id="eMT0vumo1_mFRorj7Jos-38" value="Code Push" style="text;html=1;strokeColor=none;fillColor=none;align=center;verticalAlign=middle;whiteSpace=wrap;rounded=0;" parent="1" vertex="1">
          <mxGeometry x="-1040" y="290" width="70" height="30" as="geometry" />
        </mxCell>
        <mxCell id="eMT0vumo1_mFRorj7Jos-39" value="CodeBuild" style="outlineConnect=0;dashed=0;verticalLabelPosition=bottom;verticalAlign=top;align=center;html=1;shape=mxgraph.aws3.codebuild;fillColor=#759C3E;gradientColor=none;" parent="1" vertex="1">
          <mxGeometry x="-554.49" y="127" width="76.5" height="93" as="geometry" />
        </mxCell>
        <mxCell id="eMT0vumo1_mFRorj7Jos-41" value="Docker Image Build" style="image;sketch=0;aspect=fixed;html=1;points=[];align=center;fontSize=12;image=img/lib/mscae/Docker.svg;" parent="1" vertex="1">
          <mxGeometry x="-454.49" y="350" width="85.37" height="70" as="geometry" />
        </mxCell>
        <mxCell id="eMT0vumo1_mFRorj7Jos-46" style="edgeStyle=orthogonalEdgeStyle;rounded=0;orthogonalLoop=1;jettySize=auto;html=1;" parent="1" source="eMT0vumo1_mFRorj7Jos-43" target="eMT0vumo1_mFRorj7Jos-40" edge="1">
          <mxGeometry relative="1" as="geometry" />
        </mxCell>
        <mxCell id="eMT0vumo1_mFRorj7Jos-43" value="Source pulling" style="html=1;verticalLabelPosition=bottom;align=center;labelBackgroundColor=#ffffff;verticalAlign=top;strokeWidth=2;strokeColor=#0080F0;shadow=0;dashed=0;shape=mxgraph.ios7.icons.document;" parent="1" vertex="1">
          <mxGeometry x="-710" y="285" width="63" height="90" as="geometry" />
        </mxCell>
        <mxCell id="eMT0vumo1_mFRorj7Jos-44" value="Deployment" style="image;aspect=fixed;perimeter=ellipsePerimeter;html=1;align=center;shadow=0;dashed=0;fontColor=#000000;labelBackgroundColor=default;fontSize=12;spacingTop=3;image=img/lib/ibm/devops/continuous_deploy.svg;" parent="1" vertex="1">
          <mxGeometry x="-180" y="287.5" width="85" height="85" as="geometry" />
        </mxCell>
        <mxCell id="eMT0vumo1_mFRorj7Jos-48" value="CodePipeline" style="outlineConnect=0;dashed=0;verticalLabelPosition=bottom;verticalAlign=top;align=center;html=1;shape=mxgraph.aws3.codepipeline;fillColor=#759C3E;gradientColor=none;" parent="1" vertex="1">
          <mxGeometry x="-770" y="70" width="67.5" height="81" as="geometry" />
        </mxCell>
        <mxCell id="eMT0vumo1_mFRorj7Jos-54" value="" style="edgeStyle=orthogonalEdgeStyle;rounded=0;orthogonalLoop=1;jettySize=auto;html=1;exitX=1;exitY=0.5;exitDx=0;exitDy=0;" parent="1" source="eMT0vumo1_mFRorj7Jos-44" target="eMT0vumo1_mFRorj7Jos-50" edge="1">
          <mxGeometry relative="1" as="geometry">
            <mxPoint x="-95" y="330" as="sourcePoint" />
            <mxPoint x="110" y="330.33333333333326" as="targetPoint" />
          </mxGeometry>
        </mxCell>
        <mxCell id="eMT0vumo1_mFRorj7Jos-50" value="ECS Service&lt;br&gt;(Rolling Update)" style="outlineConnect=0;dashed=0;verticalLabelPosition=bottom;verticalAlign=top;align=center;html=1;shape=mxgraph.aws3.ecs;fillColor=#F58534;gradientColor=none;" parent="1" vertex="1">
          <mxGeometry x="30" y="286" width="93.33" height="87.5" as="geometry" />
        </mxCell>
      </root>
    </mxGraphModel>
  </diagram>
</mxfile>
